HIERARCHY
ROOT Hips
{
	OFFSET 0.00000 0.00000 0.00000
	CHANNELS 6 Xposition Yposition Zposition Zrotation Yrotation Xrotation 
	JOINT LHipJoint
	{
		OFFSET 0 0 0
		CHANNELS 3 Zrotation Yrotation Xrotation
		JOINT LeftUpLeg
		{
			OFFSET 1.44960 -1.75505 0.85172
			CHANNELS 3 Zrotation Yrotation Xrotation
			JOINT LeftLeg
			{
				OFFSET 2.40573 -6.60971 0.00000
				CHANNELS 3 Zrotation Yrotation Xrotation
				JOINT LeftFoot
				{
					OFFSET 2.58773 -7.10974 0.00000
					CHANNELS 3 Zrotation Yrotation Xrotation
					JOINT LeftToeBase
					{
						OFFSET 0.18252 -0.50147 1.77316
						CHANNELS 3 Zrotation Yrotation Xrotation
						End Site
						{
							OFFSET 0.00000 -0.00000 0.92990
						}
					}
				}
			}
		}
	}
	JOINT RHipJoint
	{
		OFFSET 0 0 0
		CHANNELS 3 Zrotation Yrotation Xrotation
		JOINT RightUpLeg
		{
			OFFSET -1.40744 -1.75505 0.85172
			CHANNELS 3 Zrotation Yrotation Xrotation
			JOINT RightLeg
			{
				OFFSET -2.43714 -6.69600 0.00000
				CHANNELS 3 Zrotation Yrotation Xrotation
				JOINT RightFoot
				{
					OFFSET -2.51650 -6.91404 0.00000
					CHANNELS 3 Zrotation Yrotation Xrotation
					JOINT RightToeBase
					{
						OFFSET -0.25383 -0.69740 1.96384
						CHANNELS 3 Zrotation Yrotation Xrotation
						End Site
						{
							OFFSET -0.00000 -0.00000 1.04244
						}
					}
				}
			}
		}
	}
	JOINT LowerBack
	{
		OFFSET 0 0 0
		CHANNELS 3 Zrotation Yrotation Xrotation
		JOINT Spine
		{
			OFFSET 0.00579 2.14458 -0.24367
			CHANNELS 3 Zrotation Yrotation Xrotation
			JOINT Spine1
			{
				OFFSET 0.05899 2.16316 -0.04515
				CHANNELS 3 Zrotation Yrotation Xrotation
				JOINT Neck
				{
					OFFSET 0 0 0
					CHANNELS 3 Zrotation Yrotation Xrotation
					JOINT Neck1
					{
						OFFSET -0.01650 1.59577 0.24841
						CHANNELS 3 Zrotation Yrotation Xrotation
						JOINT Head
						{
							OFFSET -0.01016 1.63072 -0.17782
							CHANNELS 3 Zrotation Yrotation Xrotation
							End Site
							{
								OFFSET -0.00250 1.64111 -0.08717
							}
						}
					}
				}
				JOINT LeftShoulder
				{
					OFFSET 0 0 0
					CHANNELS 3 Zrotation Yrotation Xrotation
					JOINT LeftArm
					{
						OFFSET 3.17745 0.95174 -0.45729
						CHANNELS 3 Zrotation Yrotation Xrotation
						JOINT LeftForeArm
						{
							OFFSET 4.93485 -0.00000 0.00000
							CHANNELS 3 Zrotation Yrotation Xrotation
							JOINT LeftHand
							{
								OFFSET 3.41719 -0.00000 -0.00000
								CHANNELS 3 Zrotation Yrotation Xrotation
								JOINT LeftFingerBase
								{
									OFFSET 0 0 0
									CHANNELS 3 Zrotation Yrotation Xrotation
									JOINT LeftHandIndex1
									{
										OFFSET 0.62410 -0.00000 -0.00000
										CHANNELS 3 Zrotation Yrotation Xrotation
										End Site
										{
											OFFSET 0.50317 -0.00000 -0.00000
										}
									}
								}
								JOINT LThumb
								{
									OFFSET 0 0 0
									CHANNELS 3 Zrotation Yrotation Xrotation
									End Site
									{
										OFFSET 0.51085 -0.00000 0.51085
									}
								}
							}
						}
					}
				}
				JOINT RightShoulder
				{
					OFFSET 0 0 0
					CHANNELS 3 Zrotation Yrotation Xrotation
					JOINT RightArm
					{
						OFFSET -2.87924 1.13038 -0.75204
						CHANNELS 3 Zrotation Yrotation Xrotation
						JOINT RightForeArm
						{
							OFFSET -5.22034 -0.00000 0.00000
							CHANNELS 3 Zrotation Yrotation Xrotation
							JOINT RightHand
							{
								OFFSET -3.41809 -0.00000 -0.00000
								CHANNELS 3 Zrotation Yrotation Xrotation
								JOINT RightFingerBase
								{
									OFFSET 0 0 0
									CHANNELS 3 Zrotation Yrotation Xrotation
									JOINT RightHandIndex1
									{
										OFFSET -0.77534 -0.00000 -0.00000
										CHANNELS 3 Zrotation Yrotation Xrotation
										End Site
										{
											OFFSET -0.62510 -0.00000 -0.00000
										}
									}
								}
								JOINT RThumb
								{
									OFFSET 0 0 0
									CHANNELS 3 Zrotation Yrotation Xrotation
									End Site
									{
										OFFSET -0.63464 -0.00000 0.63464
									}
								}
							}
						}
					}
				}
			}
		}
	}
}
MOTION
Frames: 11
Frame Time: .0083333
1.0537 17.5144 -32.4269 0 0 0 0 0 0 -21 0 0 0 0 0 0 0 0 0 0 0 0 0 0 21 0 0 0 0 0 0 0 0 0 0 0 0 0 0 0 0 0 0 0 0 0 0 -16 0 0 21 0 0 11 0 0 0 -8 0 0 0 0 0 0 0 0 0 0 0 0 0 0 0 0 0 0 0 0 8 0 0 0 0 0 0 0 0 0 0 0 0 0 0 0 0 0
1.0537 17.5144 -32.4269 -1.8819 4.9395 7.7662 0.0000 0.0000 0.0000 -17.6556 -10.2630 -10.4377 2.1273 9.1264 26.1915 1.4325 -5.1557 -21.5283 0.0374 -1.2482 -3.4320 0.0000 0.0000 0.0000 23.6827 3.9539 -11.4768 -2.0429 -8.9549 25.6543 -1.3239 -6.5417 -24.9909 -0.3095 -3.5766 9.8883 1.0512 -1.8533 -2.5268 1.9908 -2.4967 -1.4661 1.3889 -1.2477 -0.0430 -5.0012 -2.0158 -18.4747 2.9662 -1.9361 13.2140 1.5617 -0.9084 7.1526 0.0000 -0.0000 0.0000 -88.5659 6.0484 18.8754 16.6267 -26.3630 -3.9201 -0.0000 -0.0000 5.8590 4.3039 41.2495 2.8408 -7.1250 0.0000 -0.0000 -42.7452 66.5162 -23.9710 0.0000 -0.0000 0.0000 86.5092 -4.6526 -11.2632 -9.0692 15.2706 -1.2183 0.0000 -0.0000 -0.2418 -15.7739 19.3542 -5.3482 7.1250 -0.0000 -0.0000 8.0890 -10.0849 6.6156
1.0443 17.5123 -32.4307 -2.0159 5.0259 7.7940 0.0000 0.0000 0.0000 -17.4347 -10.3671 -10.5163 2.1487 9.1693 26.3262 1.4480 -5.1824 -21.6458 0.0396 -1.2851 -3.5337 0.0000 0.0000 0.0000 23.8855 4.1321 -11.4522 -2.0351 -8.9388 25.6041 -1.3325 -6.7103 -25.1651 -0.3545 -3.8252 10.5854 1.0907 -1.8541 -2.4432 2.0276 -2.4943 -1.5623 1.4098 -1.2467 -0.1885 -4.8863 -2.0320 -18.3597 2.8719 -1.9769 13.1568 1.5077 -0.9314 7.1141 -0.0000 -0.0000 0.0000 -88.5175 6.0740 18.9617 16.5940 -26.3195 -3.9056 -0.0000 -0.0000 5.7529 4.4766 40.6699 2.9208 -7.1250 0.0000 -0.0000 -41.6479 66.1483 -22.9246 -0.0000 -0.0000 0.0000 86.5822 -4.7935 -11.4118 -9.0623 15.2597 -1.2165 0.0000 -0.0000 -0.2457 -15.0028 19.6065 -5.1388 7.1250 -0.0000 -0.0000 8.5966 -9.9163 7.0700
1.0437 17.5104 -32.4224 -1.9818 5.1348 7.7250 0.0000 0.0000 0.0000 -17.4948 -10.3045 -10.5109 2.1507 9.1731 26.3383 1.4420 -5.1832 -21.5993 0.0506 -1.4523 -3.9943 0.0000 0.0000 0.0000 23.8638 3.8521 -11.3919 -2.0305 -8.9294 25.5747 -1.3348 -6.5889 -25.1048 -0.3486 -3.7936 10.4966 1.0530 -1.8856 -2.4456 2.0038 -2.5360 -1.5484 1.4051 -1.2674 -0.1715 -5.0422 -2.0755 -18.2182 3.1160 -2.0410 12.9210 1.6056 -0.9472 7.0202 0.0000 -0.0000 0.0000 -88.5420 6.1344 18.8973 16.6144 -26.3467 -3.9147 -0.0000 -0.0000 5.8856 4.5317 41.2470 2.9913 -7.1250 0.0000 -0.0000 -42.5190 66.5825 -23.8866 0.0000 -0.0000 0.0000 86.6346 -4.6502 -12.2892 -8.9118 15.0198 -1.1772 0.0000 0.0000 0.5581 -15.5750 19.3992 -5.2895 7.1250 -0.0000 -0.0000 8.2195 -10.0619 6.7285
1.0379 17.5131 -32.4208 -2.0207 5.0646 7.6770 0.0000 0.0000 0.0000 -17.4407 -10.2325 -10.4624 2.1676 9.2068 26.4443 1.4601 -5.2444 -21.7335 0.0466 -1.3931 -3.8310 0.0000 0.0000 0.0000 23.9272 4.0010 -11.2438 -2.0142 -8.8955 25.4690 -1.3230 -6.7453 -25.1149 -0.3524 -3.8141 10.5542 1.0113 -1.8747 -2.4315 2.0123 -2.5205 -1.5403 1.4377 -1.2594 -0.1692 -5.0356 -2.0663 -18.3229 3.1193 -2.0303 13.2066 1.6073 -0.9421 7.1306 -0.0000 -0.0000 0.0000 -88.5021 6.0680 18.9939 16.5821 -26.3036 -3.9004 -0.0000 -0.0000 5.6039 4.9251 40.8412 3.2254 -7.1250 0.0000 -0.0000 -41.4783 66.4058 -23.0540 -0.0000 -0.0000 0.0000 86.6659 -4.8013 -11.5522 -8.9950 15.1525 -1.1988 0.0000 -0.0000 -0.0232 -15.1696 19.6417 -5.2073 7.1250 -0.0000 -0.0000 8.4902 -9.8618 6.9898
1.0352 17.5118 -32.4130 -1.8810 5.3383 7.6761 0.0000 0.0000 0.0000 -17.5551 -10.3949 -10.4461 2.1757 9.2228 26.4948 1.4516 -5.3314 -21.6598 0.0364 -1.2312 -3.3852 0.0000 0.0000 0.0000 23.8123 3.7795 -11.2006 -2.0053 -8.8771 25.4116 -1.3461 -6.6591 -25.2364 -0.3682 -3.8974 10.7883 0.8668 -1.9500 -2.4451 1.9611 -2.6175 -1.5836 1.4642 -1.3072 -0.2002 -4.8507 -2.1327 -18.6095 2.8003 -2.1054 13.6810 1.4636 -0.9988 7.3322 -0.0000 0.0000 0.0000 -88.5025 6.1924 19.0661 16.6541 -26.3996 -3.9323 -0.0000 -0.0000 5.7808 4.9188 40.9334 3.2273 -7.1250 0.0000 -0.0000 -41.6320 66.4712 -23.2123 -0.0000 0.0000 0.0000 86.7367 -4.7769 -12.2028 -8.8980 14.9977 -1.1736 0.0000 0.0000 0.5280 -14.8101 19.7413 -5.1034 7.1250 -0.0000 -0.0000 8.7255 -9.8015 7.1990
1.0337 17.4998 -32.4126 -1.8801 5.2583 7.6576 0.0000 0.0000 0.0000 -17.5649 -10.3361 -10.4731 2.1924 9.2558 26.5988 1.4777 -5.2537 -21.8685 0.0586 -1.5616 -4.2956 0.0000 0.0000 0.0000 23.8538 3.8191 -11.0843 -1.9862 -8.8374 25.2879 -1.3017 -6.9367 -25.0756 -0.3060 -3.5566 9.8324 0.8870 -1.9560 -2.4498 1.9129 -2.6264 -1.5620 1.4026 -1.3120 -0.1784 -4.6096 -2.2605 -18.2502 2.6101 -2.3189 13.1663 1.3382 -1.1064 7.1061 -0.0000 0.0000 0.0000 -88.4282 6.0690 18.9777 16.6523 -26.3971 -3.9315 -0.0000 -0.0000 5.7055 4.5858 41.3516 3.0334 -7.1250 0.0000 -0.0000 -42.6375 66.6737 -24.0490 -0.0000 0.0000 0.0000 86.8444 -4.8407 -11.4377 -8.9610 15.0983 -1.1899 0.0000 0.0000 0.4515 -15.7447 19.0954 -5.2696 7.1250 -0.0000 -0.0000 8.0982 -10.3514 6.5791
1.0289 17.4965 -32.4127 -1.8263 5.3596 7.7039 0.0000 0.0000 0.0000 -17.5896 -10.4557 -10.5268 2.1946 9.2602 26.6128 1.4614 -5.2134 -21.7468 0.0500 -1.4425 -3.9673 0.0000 0.0000 0.0000 23.8271 3.7700 -11.1315 -1.9865 -8.8379 25.2895 -1.3049 -6.8849 -25.0665 -0.3295 -3.6891 10.2035 0.7135 -1.9514 -2.5259 1.9403 -2.6187 -1.5508 1.5246 -1.3070 -0.1154 -4.7085 -2.3104 -18.4599 2.6443 -2.3610 13.4770 1.3596 -1.1284 7.2465 0.0000 -0.0000 0.0000 -88.4691 6.0548 19.2453 16.7499 -26.5269 -3.9750 -0.0000 -0.0000 5.4942 4.7056 40.7069 3.0729 -7.1250 0.0000 -0.0000 -41.4811 66.2428 -22.9060 0.0000 -0.0000 0.0000 86.8375 -4.8428 -11.3751 -9.0047 15.1680 -1.2014 0.0000 0.0000 0.3163 -15.8296 18.9971 -5.2731 7.1250 -0.0000 -0.0000 8.0395 -10.4420 6.5154
1.0261 17.4970 -32.4099 -1.8096 5.3507 7.6617 0.0000 0.0000 0.0000 -17.6232 -10.4447 -10.5253 2.2103 9.2911 26.7102 1.4741 -5.2331 -21.8429 0.0634 -1.6250 -4.4703 0.0000 0.0000 0.0000 23.8255 3.7837 -11.0375 -1.9718 -8.8071 25.1938 -1.2994 -6.9660 -25.0772 -0.3319 -3.7028 10.2419 0.6902 -1.9603 -2.4619 1.8770 -2.6277 -1.6113 1.4764 -1.3114 -0.2150 -4.5959 -2.3079 -18.3434 2.6512 -2.3950 13.5223 1.3404 -1.1391 7.2416 -0.0000 0.0000 0.0000 -88.4020 6.0677 19.2089 16.7091 -26.4726 -3.9568 -0.0000 -0.0000 5.5207 4.7146 41.5827 3.1331 -7.1250 0.0000 -0.0000 -42.8952 66.8778 -24.4087 -0.0000 0.0000 0.0000 86.9597 -5.0063 -11.3785 -8.9970 15.1557 -1.1993 0.0000 0.0000 0.3001 -15.8478 19.0249 -5.2869 7.1250 -0.0000 -0.0000 8.0287 -10.4116 6.5115
1.0230 17.4961 -32.4038 -1.6354 5.2518 7.7724 0.0000 0.0000 0.0000 -17.8007 -10.5771 -10.5103 2.2036 9.2779 26.6684 1.4707 -5.1869 -21.8212 0.0380 -1.2577 -3.4582 0.0000 0.0000 0.0000 23.6136 3.6170 -11.2094 -1.9833 -8.8312 25.2687 -1.3132 -6.6938 -25.0056 -0.3060 -3.5564 9.8319 0.4291 -1.8880 -2.6619 1.8150 -2.5293 -1.6022 1.5536 -1.2609 -0.0873 -4.3437 -2.3583 -18.5608 2.2763 -2.4574 13.8623 1.1675 -1.1913 7.3844 0.0000 -0.0000 0.0000 -88.3806 5.9181 19.2259 16.6645 -26.4133 -3.9369 -0.0000 -0.0000 5.6134 4.5729 40.9618 3.0015 -7.1250 0.0000 -0.0000 -42.0170 66.3890 -23.3828 0.0000 -0.0000 0.0000 86.9602 -4.9690 -11.4487 -8.9587 15.0947 -1.1894 0.0000 0.0000 0.4810 -15.7948 18.8547 -5.2232 7.1250 -0.0000 -0.0000 8.0570 -10.5909 6.5053
1.0167 17.4976 -32.4050 -1.8469 5.3025 7.7741 0.0000 0.0000 0.0000 -17.5392 -10.5183 -10.5966 2.2044 9.2795 26.6737 1.4739 -5.1108 -21.8540 0.0713 -1.7227 -4.7400 0.0000 0.0000 0.0000 23.8831 3.7787 -11.1821 -1.9801 -8.8245 25.2479 -1.3054 -6.9397 -25.1060 -0.3118 -3.5900 9.9259 0.6905 -1.9479 -2.5448 1.8187 -2.6106 -1.7100 1.4162 -1.3029 -0.2728 -4.5055 -2.3413 -18.4898 2.5849 -2.4512 13.9011 1.2968 -1.1680 7.3910 -0.0000 -0.0000 0.0000 -88.2921 6.0653 19.0794 16.6753 -26.4278 -3.9417 -0.0000 -0.0000 5.7095 4.6708 40.7753 3.0543 -7.1250 0.0000 -0.0000 -41.6236 66.2824 -23.0330 -0.0000 -0.0000 0.0000 87.0259 -4.9319 -12.0680 -8.8198 14.8728 -1.1534 0.0000 0.0000 1.0237 -15.5221 19.3001 -5.2449 7.1250 -0.0000 -0.0000 8.2500 -10.1686 6.7360
